<?xml version="1.0" encoding="utf-8"?>
<!-- Generator: Adobe Illustrator 15.1.0, SVG Export Plug-In . SVG Version: 6.00 Build 0)  -->
<!DOCTYPE svg PUBLIC "-//W3C//DTD SVG 1.1//EN" "http://www.w3.org/Graphics/SVG/1.1/DTD/svg11.dtd">
<svg version="1.1" id="Layer_1" xmlns="http://www.w3.org/2000/svg" xmlns:xlink="http://www.w3.org/1999/xlink" x="0px" y="0px"
	 width="144px" height="115.2px" viewBox="0 0 144 115.2" enable-background="new 0 0 144 115.2" xml:space="preserve">
<g>
	<defs>
		<rect id="SVGID_1_" width="144" height="115.2"/>
	</defs>
	<clipPath id="SVGID_2_">
		<use xlink:href="#SVGID_1_"  overflow="visible"/>
	</clipPath>
	<path clip-path="url(#SVGID_2_)" fill="#5E0D8B" d="M70.62,46.273l5.437-1.899l-0.85-5.452l-5.77-0.158
		c-0.515-1.819-1.179-3.556-1.978-5.202l4.195-3.949l-2.994-4.633l-5.326,2.199c-1.197-1.435-2.516-2.754-3.934-3.943l2.229-5.317
		l-4.619-3.015l-3.977,4.181c-1.664-0.82-3.4-1.492-5.191-2.009l-0.127-5.762l-5.448-0.875l-1.927,5.429
		c-1.836-0.07-3.696,0.022-5.563,0.286l-2.461-5.215l-5.332,1.418l0.447,5.749c-1.751,0.698-3.412,1.542-4.968,2.513l-4.365-3.758
		l-4.295,3.463l2.746,5.069c-1.299,1.338-2.473,2.784-3.51,4.321l-5.524-1.661l-2.513,4.91l4.57,3.517
		c-0.639,1.736-1.129,3.534-1.455,5.373L2.4,42.583l-0.299,5.508l5.604,1.352c0.123,1.824,0.408,3.663,0.865,5.499L3.64,57.937
		l1.966,5.153l5.666-1.045c0.875,1.664,1.891,3.228,3.024,4.68l-3.281,4.734l3.89,3.909l4.76-3.263
		c1.463,1.147,3.023,2.163,4.662,3.038l-1.076,5.669l5.146,1.987l3.02-4.912c1.789,0.453,3.627,0.754,5.496,0.886l1.322,5.605
		l5.51-0.275l0.76-5.721c0.908-0.158,1.818-0.354,2.724-0.595c0.905-0.241,1.789-0.521,2.653-0.834l3.494,4.59l4.92-2.494
		l-1.631-5.525c1.559-1.043,3.006-2.216,4.334-3.499l5.053,2.771l3.48-4.28l-3.742-4.393c0.988-1.571,1.84-3.229,2.539-4.951
		l5.746,0.476l1.439-5.325l-5.197-2.488C70.581,50.012,70.686,48.152,70.62,46.273"/>
	<path clip-path="url(#SVGID_2_)" fill="#FF4612" d="M136.23,69.371l5.58-1.435l-0.385-5.502l-5.729-0.645
		c-0.357-1.834-0.875-3.625-1.543-5.352l4.518-3.581l-2.592-4.87l-5.5,1.743c-1.062-1.52-2.26-2.948-3.578-4.265l2.67-5.108
		l-4.35-3.394l-4.309,3.824c-1.574-0.946-3.248-1.763-5.01-2.433l0.361-5.754l-5.355-1.332l-2.383,5.251
		c-1.871-0.232-3.73-0.294-5.564-0.196l-2.01-5.397l-5.432,0.961l-0.043,5.765c-1.781,0.545-3.506,1.246-5.156,2.092l-4.039-4.12
		l-4.57,3.087l2.309,5.286c-1.4,1.212-2.695,2.552-3.869,4.005l-5.359-2.12l-2.919,4.679l4.257,3.889
		c-0.773,1.658-1.41,3.405-1.895,5.232l-5.766,0.244l-0.765,5.463l5.468,1.821c-0.037,1.879,0.098,3.737,0.391,5.557l-5.158,2.562
		l1.521,5.303l5.742-0.562c0.729,1.713,1.606,3.354,2.617,4.91l-3.676,4.447l3.547,4.223l5.016-2.846
		c1.35,1.262,2.814,2.411,4.387,3.428l-1.547,5.55l4.959,2.416l3.426-4.644c0.873,0.3,1.764,0.565,2.674,0.793
		c0.908,0.225,1.818,0.406,2.727,0.551l0.844,5.705l5.512,0.19l1.24-5.627c1.867-0.162,3.701-0.491,5.484-0.975l3.088,4.866
		l5.115-2.068l-1.16-5.654c1.625-0.9,3.17-1.939,4.613-3.112l4.803,3.189l3.832-3.97l-3.351-4.686
		c1.108-1.471,2.099-3.051,2.946-4.727l5.68,0.959l1.885-5.185l-4.977-2.923C135.879,73.04,136.135,71.197,136.23,69.371"/>
	<path clip-path="url(#SVGID_2_)" fill="#FFFFFF" d="M113.277,75.183l1.732,0.465l2.838-10.59l-1.658-0.443l0.914-3.413l6.234,1.669
		l-3.752,14.005l1.732,0.463l-0.896,3.341c-2.672-0.717-5.367-1.439-8.04-2.155L113.277,75.183z"/>
	<path clip-path="url(#SVGID_2_)" fill="#FFFFFF" d="M120.26,77.056l1.73,0.463l2.838-10.588l-1.658-0.445l0.914-3.414l6.234,1.67
		l-3.75,14.003l1.73,0.465l-0.894,3.339c-2.673-0.716-5.37-1.438-8.04-2.154L120.26,77.056z"/>
	<path clip-path="url(#SVGID_2_)" fill="#FFFFFF" d="M85.906,62.978l-0.01,0.017c0.004-0.039,0.004-0.072,0.006-0.11l-0.121-2.292
		c-0.041-0.388-0.086-0.796-0.109-1.264l-0.213-2.47l1.734,0.464l1.026-3.834c-2.97-0.796-5.913-1.585-8.907-2.387l-1.027,3.835
		l1.855,0.496l1.411,14.829l3.959,1.06l0.774-1.125L85.906,62.978z"/>
	<path clip-path="url(#SVGID_2_)" fill="#99999A" d="M34.753,2.021C34.186,2.073,33.77,2.583,33.82,3.14
		c0.052,0.568,0.551,0.984,1.12,0.932c0.567-0.051,0.984-0.551,0.932-1.119C35.82,2.386,35.32,1.969,34.753,2.021"/>
	<path clip-path="url(#SVGID_2_)" fill="#99999A" d="M18.624,6.615c-0.51,0.247-0.714,0.868-0.467,1.378
		c0.196,0.393,0.608,0.607,1.017,0.57c0.129-0.012,0.247-0.043,0.371-0.104C20.054,8.201,20.258,7.58,20,7.072
		C19.744,6.563,19.131,6.358,18.624,6.615"/>
	<path clip-path="url(#SVGID_2_)" fill="#99999A" d="M22.474,4.908c-0.533,0.21-0.791,0.795-0.592,1.329
		c0.171,0.447,0.616,0.697,1.065,0.656c0.089-0.007,0.177-0.026,0.275-0.065c0.533-0.209,0.79-0.805,0.591-1.329
		C23.604,4.966,23.008,4.699,22.474,4.908"/>
	<path clip-path="url(#SVGID_2_)" fill="#99999A" d="M30.579,2.602c-0.563,0.102-0.926,0.647-0.825,1.2
		c0.099,0.533,0.584,0.891,1.111,0.843c0.03-0.003,0.06-0.005,0.09-0.018c0.562-0.102,0.935-0.638,0.824-1.2
		C31.677,2.863,31.141,2.501,30.579,2.602"/>
	<path clip-path="url(#SVGID_2_)" fill="#99999A" d="M26.469,3.57c-0.549,0.15-0.858,0.721-0.708,1.269
		c0.135,0.48,0.604,0.789,1.082,0.745c0.07-0.007,0.129-0.022,0.188-0.037c0.548-0.15,0.868-0.722,0.717-1.27
		C27.588,3.729,27.017,3.409,26.469,3.57"/>
	<path clip-path="url(#SVGID_2_)" fill="#99999A" d="M14.935,8.668c-0.475,0.304-0.628,0.941-0.322,1.426
		c0.212,0.342,0.589,0.508,0.967,0.474c0.149-0.014,0.306-0.059,0.449-0.142c0.484-0.305,0.627-0.941,0.332-1.426
		C16.055,8.516,15.419,8.373,14.935,8.668"/>
	<path clip-path="url(#SVGID_2_)" fill="#99999A" d="M71.979,18.458c0.22-0.02,0.433-0.109,0.608-0.266
		c0.417-0.38,0.448-1.035,0.069-1.453c-0.391-0.426-1.036-0.457-1.462-0.067c-0.417,0.379-0.448,1.035-0.069,1.452
		C71.36,18.375,71.67,18.486,71.979,18.458"/>
	<path clip-path="url(#SVGID_2_)" fill="#99999A" d="M11.467,11.063c-0.45,0.342-0.543,0.983-0.199,1.444
		c0.227,0.29,0.571,0.43,0.92,0.398c0.179-0.016,0.364-0.083,0.523-0.208c0.45-0.342,0.543-0.984,0.201-1.435
		C12.569,10.802,11.917,10.71,11.467,11.063"/>
	<path clip-path="url(#SVGID_2_)" fill="#99999A" d="M5.258,16.75C4.875,17.167,4.904,17.816,5.33,18.2
		c0.219,0.201,0.509,0.295,0.787,0.27c0.249-0.023,0.491-0.135,0.663-0.332c0.383-0.427,0.354-1.076-0.062-1.46
		C6.292,16.294,5.641,16.324,5.258,16.75"/>
	<path clip-path="url(#SVGID_2_)" fill="#99999A" d="M8.229,13.758c-0.416,0.39-0.447,1.035-0.057,1.461
		c0.222,0.241,0.534,0.353,0.853,0.324c0.209-0.019,0.422-0.109,0.598-0.265c0.418-0.38,0.448-1.036,0.068-1.453
		C9.302,13.409,8.646,13.378,8.229,13.758"/>
	<path clip-path="url(#SVGID_2_)" fill="#99999A" d="M47.347,2.6c-0.562-0.11-1.101,0.261-1.2,0.822
		c-0.111,0.552,0.261,1.091,0.822,1.2c0.093,0.022,0.184,0.023,0.283,0.015c0.449-0.041,0.829-0.377,0.917-0.837
		C48.27,3.239,47.899,2.7,47.347,2.6"/>
	<path clip-path="url(#SVGID_2_)" fill="#99999A" d="M62.962,8.667c-0.479-0.297-1.117-0.148-1.415,0.34
		c-0.308,0.48-0.158,1.119,0.33,1.416c0.192,0.123,0.418,0.173,0.637,0.153c0.308-0.028,0.604-0.196,0.779-0.483
		c0.307-0.489,0.159-1.119-0.33-1.416L62.962,8.667z"/>
	<path clip-path="url(#SVGID_2_)" fill="#99999A" d="M64.997,11.263c-0.35,0.454-0.261,1.099,0.202,1.438l-0.011,0.001
		c0.216,0.161,0.473,0.228,0.722,0.205c0.279-0.025,0.549-0.161,0.727-0.408c0.339-0.452,0.251-1.097-0.202-1.437
		C65.981,10.721,65.337,10.801,64.997,11.263"/>
	<path clip-path="url(#SVGID_2_)" fill="#99999A" d="M69.673,13.758c-0.416-0.383-1.067-0.354-1.45,0.062
		c-0.385,0.417-0.356,1.067,0.062,1.461c0.219,0.201,0.508,0.285,0.786,0.259c0.25-0.023,0.491-0.135,0.673-0.333
		C70.128,14.792,70.1,14.141,69.673,13.758"/>
	<path clip-path="url(#SVGID_2_)" fill="#99999A" d="M59.292,6.612c-0.516-0.254-1.129-0.047-1.384,0.467
		c-0.255,0.506-0.049,1.119,0.457,1.375c0.18,0.094,0.373,0.126,0.552,0.11c0.349-0.032,0.662-0.231,0.832-0.568
		C60.003,7.491,59.796,6.867,59.292,6.612"/>
	<path clip-path="url(#SVGID_2_)" fill="#99999A" d="M38.962,1.828c-0.571,0.001-1.032,0.455-1.031,1.028
		c0.003,0.572,0.466,1.032,1.029,1.031c0.029-0.003,0.06-0.006,0.089-0.009c0.528-0.048,0.939-0.487,0.941-1.02
		C39.988,2.286,39.524,1.827,38.962,1.828"/>
	<path clip-path="url(#SVGID_2_)" fill="#99999A" d="M55.44,4.905c-0.53-0.203-1.13,0.052-1.332,0.583
		c-0.213,0.532,0.053,1.13,0.584,1.342C54.837,6.888,55,6.903,55.159,6.888c0.369-0.034,0.718-0.276,0.865-0.651
		C56.226,5.707,55.971,5.108,55.44,4.905"/>
	<path clip-path="url(#SVGID_2_)" fill="#99999A" d="M74.607,21.633c0.189-0.017,0.375-0.084,0.533-0.209
		c0.451-0.342,0.545-0.984,0.201-1.444c-0.344-0.451-0.984-0.543-1.445-0.2c-0.449,0.343-0.543,0.984-0.199,1.444
		C73.924,21.515,74.27,21.664,74.607,21.633"/>
	<path clip-path="url(#SVGID_2_)" fill="#99999A" d="M43.167,2.017c-0.567-0.049-1.071,0.368-1.12,0.936
		c-0.049,0.556,0.368,1.06,0.935,1.12c0.061,0.004,0.122-0.002,0.191-0.009c0.477-0.043,0.886-0.422,0.93-0.927
		C44.151,2.57,43.733,2.066,43.167,2.017"/>
	<path clip-path="url(#SVGID_2_)" fill="#99999A" d="M51.442,3.562c-0.546-0.151-1.11,0.162-1.271,0.708
		c-0.161,0.547,0.163,1.121,0.708,1.271c0.125,0.04,0.255,0.047,0.375,0.036c0.409-0.037,0.774-0.321,0.896-0.744
		C52.311,4.286,51.988,3.713,51.442,3.562"/>
	<polygon clip-path="url(#SVGID_2_)" fill="#99999A" points="78.611,17.849 76.078,22.932 70.441,22.75 80.242,30.036 	"/>
	<path clip-path="url(#SVGID_2_)" fill="#99999A" d="M76.13,102.171c-0.35,0.449-0.28,1.1,0.17,1.449
		c0.19,0.15,0.41,0.221,0.64,0.221c0.301,0,0.601-0.13,0.801-0.391c0.359-0.449,0.279-1.09-0.16-1.449
		C77.13,101.649,76.479,101.73,76.13,102.171"/>
	<path clip-path="url(#SVGID_2_)" fill="#99999A" d="M91.74,109.45c-0.54-0.17-1.12,0.141-1.29,0.681
		c-0.16,0.55,0.14,1.12,0.689,1.29c0.101,0.029,0.2,0.051,0.3,0.051c0.44,0,0.851-0.291,0.98-0.731
		C92.59,110.2,92.28,109.62,91.74,109.45"/>
	<path clip-path="url(#SVGID_2_)" fill="#99999A" d="M84.31,106.391c-0.5-0.271-1.12-0.07-1.39,0.43c-0.26,0.5-0.07,1.13,0.43,1.391
		c0.16,0.08,0.32,0.12,0.481,0.12c0.369,0,0.729-0.2,0.909-0.551C85.01,107.28,84.819,106.65,84.31,106.391"/>
	<path clip-path="url(#SVGID_2_)" fill="#99999A" d="M87.96,108.091c-0.53-0.221-1.13,0.04-1.351,0.56
		c-0.22,0.53,0.03,1.13,0.561,1.351c0.13,0.05,0.26,0.08,0.39,0.08c0.41,0,0.79-0.24,0.95-0.641
		C88.73,108.91,88.48,108.311,87.96,108.091"/>
	<path clip-path="url(#SVGID_2_)" fill="#99999A" d="M73.08,99.4c-0.39,0.41-0.37,1.061,0.04,1.45v0.01
		c0.199,0.19,0.449,0.28,0.71,0.28c0.27,0,0.54-0.11,0.75-0.32c0.39-0.41,0.37-1.06-0.04-1.46C74.13,98.971,73.479,98.99,73.08,99.4
		"/>
	<path clip-path="url(#SVGID_2_)" fill="#99999A" d="M80.84,104.351c-0.47-0.31-1.11-0.17-1.42,0.3c-0.311,0.48-0.18,1.12,0.3,1.431
		c0.17,0.109,0.37,0.17,0.561,0.17c0.34,0,0.67-0.17,0.859-0.471C81.45,105.301,81.318,104.66,80.84,104.351"/>
	<path clip-path="url(#SVGID_2_)" fill="#99999A" d="M65.64,89.57c-0.49,0.29-0.65,0.92-0.36,1.41c0.19,0.33,0.53,0.51,0.89,0.51
		c0.17,0,0.35-0.05,0.52-0.14c0.49-0.29,0.65-0.92,0.36-1.41S66.129,89.28,65.64,89.57"/>
	<path clip-path="url(#SVGID_2_)" fill="#99999A" d="M70.3,96.36c-0.42,0.37-0.47,1.021-0.1,1.45c0.21,0.23,0.49,0.35,0.78,0.35
		c0.24,0,0.48-0.079,0.68-0.25c0.43-0.369,0.47-1.02,0.1-1.449C71.38,96.03,70.73,95.98,70.3,96.36"/>
	<path clip-path="url(#SVGID_2_)" fill="#99999A" d="M69.25,93.311c-0.33-0.47-0.97-0.57-1.43-0.24c-0.47,0.34-0.57,0.98-0.24,1.44
		c0.21,0.28,0.52,0.43,0.84,0.43c0.21,0,0.42-0.07,0.6-0.2c0.46-0.33,0.57-0.97,0.24-1.43H69.25z"/>
	<path clip-path="url(#SVGID_2_)" fill="#99999A" d="M126.689,105.291c-0.489,0.29-0.649,0.92-0.359,1.409
		c0.189,0.319,0.54,0.5,0.89,0.5c0.18,0,0.36-0.04,0.521-0.14c0.489-0.291,0.649-0.92,0.359-1.41S127.18,105.001,126.689,105.291"/>
	<path clip-path="url(#SVGID_2_)" fill="#99999A" d="M115.59,109.94c-0.55,0.141-0.88,0.71-0.74,1.26c0.12,0.46,0.54,0.761,1,0.761
		c0.08,0,0.17-0.011,0.26-0.03c0.551-0.14,0.881-0.71,0.73-1.261C116.7,110.12,116.14,109.791,115.59,109.94"/>
	<path clip-path="url(#SVGID_2_)" fill="#99999A" d="M119.43,108.74c-0.54,0.19-0.82,0.78-0.62,1.32
		c0.15,0.409,0.55,0.67,0.971,0.67c0.119,0,0.239-0.02,0.35-0.06c0.54-0.19,0.81-0.79,0.62-1.32
		C120.55,108.82,119.96,108.541,119.43,108.74"/>
	<path clip-path="url(#SVGID_2_)" fill="#99999A" d="M123.14,107.181c-0.521,0.24-0.74,0.86-0.49,1.37
		c0.17,0.37,0.54,0.59,0.931,0.59c0.149,0,0.3-0.03,0.439-0.1c0.521-0.24,0.73-0.86,0.49-1.37
		C124.26,107.15,123.649,106.94,123.14,107.181"/>
	<path clip-path="url(#SVGID_2_)" fill="#99999A" d="M130.05,103.081v-0.011c-0.46,0.34-0.56,0.98-0.23,1.44
		c0.2,0.28,0.521,0.43,0.841,0.43c0.21,0,0.42-0.06,0.6-0.2c0.46-0.33,0.56-0.979,0.23-1.439
		C131.149,102.841,130.51,102.74,130.05,103.081"/>
	<path clip-path="url(#SVGID_2_)" fill="#99999A" d="M95.64,110.45c-0.56-0.109-1.109,0.24-1.22,0.801
		c-0.12,0.56,0.24,1.1,0.8,1.221c0.07,0.009,0.14,0.019,0.21,0.019c0.48,0,0.9-0.33,1.01-0.819
		C96.55,111.11,96.189,110.57,95.64,110.45"/>
	<path clip-path="url(#SVGID_2_)" fill="#99999A" d="M103.63,111.351h-0.01c-0.57-0.01-1.04,0.44-1.04,1.01
		c-0.021,0.57,0.439,1.04,1.01,1.05h0.02c0.551,0,1.011-0.449,1.021-1.01C104.649,111.831,104.189,111.36,103.63,111.351"/>
	<path clip-path="url(#SVGID_2_)" fill="#99999A" d="M111.649,110.78c-0.56,0.09-0.939,0.62-0.85,1.181
		c0.079,0.51,0.52,0.859,1.02,0.859c0.051,0,0.11,0,0.171-0.01c0.56-0.09,0.939-0.62,0.85-1.18
		C112.74,111.07,112.21,110.69,111.649,110.78"/>
	<path clip-path="url(#SVGID_2_)" fill="#99999A" d="M99.609,111.091c-0.569-0.07-1.079,0.34-1.14,0.899
		c-0.06,0.57,0.34,1.079,0.911,1.141c0.039,0.01,0.079,0.01,0.119,0.01c0.51,0,0.96-0.39,1.02-0.91
		C100.58,111.66,100.18,111.15,99.609,111.091"/>
	<path clip-path="url(#SVGID_2_)" fill="#99999A" d="M107.649,111.251c-0.569,0.04-0.989,0.529-0.949,1.1
		c0.04,0.54,0.489,0.96,1.02,0.96c0.03,0,0.05,0,0.08-0.01v0.01c0.57-0.05,0.99-0.54,0.96-1.11
		C108.71,111.641,108.22,111.211,107.649,111.251"/>
	<path clip-path="url(#SVGID_2_)" fill="#99999A" d="M134.027,107.085l4.825-11.218l-11.479,4.397l5.507,1.288
		c0.015,0.066,0.033,0.128,0.061,0.191L134.027,107.085z"/>
	<path clip-path="url(#SVGID_2_)" fill="#FFFFFF" d="M29.657,53.727l1.616-0.43l-2.626-9.873l-1.546,0.41l-0.847-3.181l5.815-1.548
		l3.472,13.06l1.614-0.43l0.827,3.114c-2.489,0.662-5.005,1.331-7.497,1.993L29.657,53.727z"/>
	<path clip-path="url(#SVGID_2_)" fill="#FFFFFF" d="M20.201,55.443l-0.002,0.002L16.93,43.154l-6.5,1.728l0.961,3.623l1.916-0.51
		l2.373,8.928l-1.914,0.508l0.958,3.601c2.789-0.741,5.79-1.54,8.56-2.273l-0.926-3.487l-2.086,0.432
		C20.25,55.62,20.226,55.53,20.201,55.443"/>
	<path clip-path="url(#SVGID_2_)" fill="#FFFFFF" d="M50.338,42.671l-0.833-3.138c-1.83,0.487-3.686,0.98-5.538,1.473l2.711,10.196
		c0.003-0.009,0.012-0.018,0.015-0.028l0.316,1.274c1.846-0.492,3.714-0.987,5.537-1.471l-0.832-3.138l-1.549,0.411l-1.374-5.169
		L50.338,42.671z"/>
	<path clip-path="url(#SVGID_2_)" fill="#FFFFFF" d="M58.834,44.43l-0.003,0.033l-2.396-3.439l0.947-0.251l-0.833-3.138
		c-2.308,0.615-4.732,1.259-7.061,1.878l0.833,3.138l1.639-0.438l5.67,7.016c-0.069,0.39-0.123,0.75-0.187,1.16
		c-0.158,1.353-1.316,1.363-2.344,1.117l-0.323,3.446c3.474,0.979,6.32-0.024,6.955-3.948l0.32-1.952L58.834,44.43z"/>
	<path clip-path="url(#SVGID_2_)" fill="#FFFFFF" d="M57.541,37.371l0.834,3.137l0.783-0.207l-0.201,2.591l3.323,4.768l1.401-8.562
		l1.567-0.417l-0.833-3.136C62.107,36.157,59.822,36.766,57.541,37.371"/>
	<path clip-path="url(#SVGID_2_)" fill="#FFFFFF" d="M45.036,48.918c-0.302,0.432-0.744,0.771-1.337,0.928
		c-1.268,0.337-2.522-0.293-2.946-1.885c-0.367-1.385,0.162-2.736,1.614-3.122c0.603-0.159,1.137-0.123,1.593,0.063l-0.88-3.283
		c-0.717-0.222-1.574-0.231-2.595,0.041c-3.343,0.889-4.873,4.063-3.977,7.43c0.888,3.346,3.419,5.241,6.812,4.537
		c0.91-0.189,1.871-0.661,2.601-1.404L45.036,48.918z"/>
	<path clip-path="url(#SVGID_2_)" fill="#FFFFFF" d="M19.865,42.374l-1.972,0.524l1.057,3.944l1.966-0.524
		c1.037-0.274,2.024,0.006,2.307,1.068c0.307,1.152-0.407,1.911-1.443,2.187l-1.959,0.521l0.995,3.713l1.952-0.519
		c3.269-0.896,6.018-3.38,5.011-7.163C26.765,42.318,23.625,41.375,19.865,42.374"/>
	<path clip-path="url(#SVGID_2_)" fill="#FFFFFF" d="M110.848,73.553c-0.949,0.38-2.121,0.491-3.457,0.134
		c-0.025-0.008-0.055-0.018-0.082-0.027l-0.947,3.536c2.068,0.53,4.252,0.402,6.043-0.549L110.848,73.553z"/>
	<path clip-path="url(#SVGID_2_)" fill="#FFFFFF" d="M109.801,64.357l-0.898,3.354c0.902,0.35,1.604,1.062,1.422,1.962l-4.428-1.188
		c0.332-0.774,1.166-1.049,2.021-0.99l0.908-3.392c-3.199-0.633-6.873,0.589-8.002,4.801c-1.102,4.116,1.174,6.802,4.572,8.001
		l0.982-3.668c-0.682-0.416-1.27-1.051-1.291-1.839l8.584,2.301C115.926,69.309,113.846,65.648,109.801,64.357"/>
	<path clip-path="url(#SVGID_2_)" fill="#FFFFFF" d="M98.016,56.112l-1.027,3.835l1.781,0.477l-1.338,1.923
		c-0.4,0.708-0.779,1.403-1.148,2.093l0.43,7.879l7.35-10.476l1.832,0.49l1.027-3.834C103.952,57.703,101.01,56.916,98.016,56.112"
		/>
	<path clip-path="url(#SVGID_2_)" fill="#FFFFFF" d="M95.373,66.204c-0.006,0.013-0.012,0.025-0.018,0.041l-0.58-10.709
		l-3.537-0.948l-4.4,6.93l0.396,7.3l3.439-4.993l0.848,9.108l4.006,1.074l0.238-0.338L95.373,66.204z"/>
</g>
</svg>
